# AST/ASF file generated using VICON BodyLanguage
# -----------------------------------------------
:version 1.10
:name VICON
:units
  mass 1.0
  length 0.45
  angle deg
:documentation
   .ast/.asf automatically generated from VICON data using
   VICON BodyBuilder and BodyLanguage model FoxedUp or BRILLIANT.MOD
:root
   order TX TY TZ RX RY RZ
   axis XYZ
   position 0 0 0  
   orientation 0 0 0 
:bonedata
  begin
     id 1 
     name lhipjoint
     direction 0.692814 -0.645514 0.321437 
     length 2.38754 
     axis 0 0 0  XYZ
  end
  begin
     id 2 
     name lfemur
     direction 0.34202 -0.939693 0  
     length 6.41921  
     axis 0 0 20  XYZ
    dof rx ry rz
    limits (-160.0 20.0)
           (-70.0 70.0)
           (-60.0 70.0)
  end
  begin
     id 3 
     name ltibia
     direction 0.34202 -0.939693 0   
     length 6.98247   
     axis 0 0 20   XYZ
    dof rx
    limits (-10.0 170.0)
  end
  begin
     id 4 
     name lfoot
     direction 0.0947186 -0.260237 0.960888   
     length 1.83034   
     axis -90 7.62852e-016 20   XYZ
    dof rx rz
    limits (-45.0 90.0)
           (-70.0 20.0)
  end
  begin
     id 5 
     name ltoes
     direction 1.53538e-011 -4.21952e-011 1   
     length 0.920499   
     axis -90 7.62852e-016 20   XYZ
    dof rx
    limits (-90.0 20.0)
  end
  begin
     id 6 
     name rhipjoint
     direction -0.631686 -0.693949 0.345555   
     length 2.2209  
     axis 0 0 0  XYZ 
  end
  begin
     id 7 
     name rfemur
     direction -0.34202 -0.939693 0   
     length 6.49542   
     axis 0 0 -20   XYZ
    dof rx ry rz
    limits (-160.0 20.0)
           (-70.0 70.0)
           (-70.0 60.0)
  end
  begin
     id 8 
     name rtibia
     direction -0.34202 -0.939693 0   
     length 7.21712   
     axis 0 0 -20   XYZ
    dof rx
    limits (-10.0 170.0)
 end
 begin
     id 9 
     name rfoot
     direction -0.0825378 -0.226771 0.970444   
     length 1.89724  
     axis -90 -7.62852e-016 -20   XYZ
    dof rx rz
    limits (-45.0 90.0)
           (-20.0 70.0)
  end
  begin
     id 10 
     name rtoes
     direction -1.53515e-011 -4.22016e-011 1   
     length 0.955868   
     axis -90 -7.62852e-016 -20   XYZ
    dof rx
    limits (-90.0 20.0)
  end
  begin
     id 11 
     name lowerback
     direction -0.0104711 0.984802 -0.173368   
     length 1.84931   
     axis 0 0 0   XYZ
    dof rx ry rz
    limits (-20.0 45.0)
           (-30.0 30.0)
           (-30.0 30.0)
  end
  begin
     id 12 
     name upperback
     direction -0.00286433 0.999996 -0.000382853   
     length 1.85768   
     axis 0 0 0   XYZ
    dof rx ry rz
    limits (-20.0 45.0)
           (-30.0 30.0)
           (-30.0 30.0)
  end
  begin
     id 13 
     name thorax
     direction 0.00167534 0.996793 0.0800069   
     length 1.92   
     axis 0 0 0   XYZ
    dof rx ry rz
    limits (-20.0 45.0)
           (-30.0 30.0)
           (-30.0 30.0)
  end
  begin
     id 14 
     name lowerneck
     direction -0.0672491 0.995415 0.068018   
     length 1.58923   
     axis 0 0 0   XYZ
    dof rx ry rz
    limits (-20.0 45.0)
           (-30.0 30.0)
           (-30.0 30.0)
  end
  begin
     id 15 
     name upperneck
     direction 0.0958019 0.982476 -0.159884   
     length 1.60189   
     axis 0 0 0   XYZ
    dof rx ry rz
    limits (-20.0 45.0)
           (-30.0 30.0)
           (-30.0 30.0)
  end
  begin
     id 16
     name head
     direction 0.032989 0.997338 -0.0650226  
     length 1.61681  
     axis 0 0 0   XYZ
    dof rx ry rz
    limits (-20.0 45.0)
           (-30.0 30.0)
           (-30.0 30.0)
  end
  begin
     id 17 
     name lclavicle
     direction 0.954279 0.298875 -0.00496069  
     length 2.99449  
     axis 0 0 0   XYZ
    dof ry rz
    limits (-20.0 10.0)
           (0.0 20.0)
  end
  begin
     id 18 
     name lhumerus
     direction 1 -4.48985e-011 -4.2057e-027   
     length 4.79185   
     axis 180 -30 -90   XYZ
    dof rx ry rz
    limits (-60.0 90.0)
           (-90.0 90.0)
           (-90.0 90.0)
  end
  begin
     id 19
     name lradius
     direction 1 -4.48945e-011 1.15441e-028   
     length 2.65553   
     axis 180 -30 -90   XYZ
    dof rx
    limits (-10.0 170.0)
  end
  begin
     id 20
     name lwrist
     direction 1 -4.4899e-011 4.8894e-028   
     length 1.32777   
     axis -2.56392e-016 90 90   XYZ
    dof ry
    limits (-180.0 0.0)
 end
  begin
     id 21 
     name lhand
     direction 1 -4.48908e-011 9.7788e-028   
     length 0.743904   
     axis -6.23971e-016 90 90   XYZ
    dof rx rz
    limits (-90.0 90.0)
           (-45.0 45.0)
  end
  begin
     id 22 
     name lfingers
     direction 1 -4.49068e-011 1.95576e-027   
     length 0.599754   
     axis -1.24794e-015 90 90   XYZ
    dof rx
    limits (0.0 90.0)
  end
  begin
     id 23
     name lthumb
     direction 0.707107 -6.34883e-011 0.707107   
     length 0.861131   
     axis -90 45 2.85299e-015   XYZ
    dof rx rz
    limits (-45.0 45.0)
           (-45.0 45.0)
  end
  begin
     id 24 
     name rclavicle
     direction -0.957921 0.286916 0.00811568   
     length 3.06817  
     axis 0 0 0   XYZ 
    dof ry rz
    limits (-10.0 20.0)
           (-20.0 0.0)
  end
  begin
     id 25 
     name rhumerus
     direction -1 -4.48971e-011 -3.07942e-027  
     length 4.77254   
     axis 180 30 90   XYZ
    dof rx ry rz
    limits (-90.0 60.0)
           (-90.0 90.0)
           (-90.0 90.0)
  end
  begin
     id 26 
     name rradius
     direction -1 -4.48957e-011 -9.6815e-028   
     length 2.75995   
     axis 180 30 90   XYZ
    dof rx
    limits (-10.0 170.0)
  end
  begin
     id 27 
     name rwrist
     direction -1 -4.48979e-011 4.8894e-028   
     length 1.37997   
     axis -2.56392e-016 -90 -90   XYZ
    dof ry
    limits (-180.0 0.0)
  end
  begin
     id 28
     name rhand
     direction -1 -4.48906e-011 9.7788e-028   
     length 0.701619   
     axis -6.23971e-016 -90 -90   XYZ
    dof rx rz
    limits (-90.0 90.0)
           (-45.0 45.0)
  end
  begin
     id 29
     name rfingers
     direction -1 -4.49018e-011 1.95576e-027   
     length 0.565663   
     axis -1.24794e-015 -90 -90   XYZ
    dof rx
    limits (0.0 90.0)
  end
  begin
     id 30
     name rthumb
     direction -0.707107 -6.34881e-011 0.707107   
     length 0.812183   
     axis -90 -45 -2.85299e-015   XYZ
    dof rx rz
    limits (-45.0 45.0)
           (-45.0 45.0)
  end
:hierarchy
  begin
    root lhipjoint rhipjoint lowerback
    lhipjoint lfemur
    lfemur ltibia
    ltibia lfoot
    lfoot ltoes
    rhipjoint rfemur
    rfemur rtibia
    rtibia rfoot
    rfoot rtoes
    lowerback upperback
    upperback thorax
    thorax lowerneck lclavicle rclavicle
    lowerneck upperneck
    upperneck head
    lclavicle lhumerus
    lhumerus lradius
    lradius lwrist
    lwrist lhand lthumb
    lhand lfingers
    rclavicle rhumerus
    rhumerus rradius
    rradius rwrist
    rwrist rhand rthumb
    rhand rfingers
  end

#!OML:ASF F:\VICON\USERDATA\INSTALL\rory3\rory3.ASF
:FULLY-SPECIFIED
:DEGREES
759
root 0.220459 15.119 -2.66686 10.1189 4.05993 -1.49679
lowerback 34.0349 1.62696 -0.688517
upperback 12.0901 1.78085 -0.891239
thorax -4.01524 0.891124 -1.15257
lowerneck -16.5738 -8.3611 -14.4395
upperneck -0.684723 -9.23424 15.425
head 3.90765 -3.97306 6.34003
rclavicle 9.93923e-016 1.21259e-014
rhumerus 21.9376 18.3789 -70.6675
rradius 125.602
rwrist 25.6243
rhand -0.511314 6.1996
rfingers 7.12502
rthumb 25.1005 -22.1706
lclavicle 9.93923e-016 1.21259e-014
lhumerus 18.5881 -22.1426 66.8392
lradius 116.171
lwrist -0.535225
lhand -18.7896 20.5529
lfingers 7.12502
lthumb 7.50821 50.3996
rfemur -41.1424 7.57543 14.6047
rtibia 49.9554
rfoot -14.2255 -13.8536
rtoes -18.0458
lfemur -42.3989 -8.74954 -11.4956
ltibia 47.5489
lfoot -11.4573 3.15483
ltoes -16.9106
760
root 0.21877 15.1204 -2.66856 10.0266 3.86917 -1.20193
lowerback 34.348 1.68533 -0.951497
upperback 11.9571 1.7472 -1.09119
thorax -4.27091 0.873661 -1.21992
lowerneck -16.5441 -8.3795 -14.6074
upperneck -0.436608 -9.28889 15.9126
head 4.02878 -3.97791 6.51786
rclavicle 1.37161e-014 2.78299e-015
rhumerus 21.8172 18.2291 -70.7892
rradius 125.631
rwrist 25.3146
rhand -0.892979 6.38481
rfingers 7.12502
rthumb 24.7348 -22.0361
lclavicle 1.37161e-014 2.78299e-015
lhumerus 18.4706 -22.2609 66.8159
lradius 116.253
lwrist -0.656924
lhand -18.4803 21.1498
lfingers 7.12502
lthumb 7.80677 50.9857
rfemur -41.1127 7.63895 14.287
rtibia 50.0757
rfoot -14.3081 -13.739
rtoes -18.1889
lfemur -42.1503 -8.70158 -11.8524
ltibia 47.4028
lfoot -11.4471 3.19267
ltoes -16.6333
761
root 0.215709 15.1236 -2.6685 9.87723 3.61856 -0.540728
lowerback 34.4658 1.85983 -1.67413
upperback 12.0192 1.71695 -1.30985
thorax -4.25181 0.849549 -1.05857
lowerneck -16.4981 -8.3989 -14.6542
upperneck -0.365188 -9.3594 16.4435
head 4.09509 -3.99145 6.69065
rclavicle 2.04748e-014 -3.29983e-014
rhumerus 21.982 18.0002 -70.7967
rradius 125.612
rwrist 24.8474
rhand -1.34682 6.76511
rfingers 7.12502
rthumb 24.2997 -21.7147
lclavicle 2.04748e-014 -3.29983e-014
lhumerus 18.5362 -22.3798 66.8208
lradius 116.436
lwrist -0.670736
lhand -17.9906 21.1581
lfingers 7.12502
lthumb 8.27938 50.9758
rfemur -41.0182 7.66781 13.5624
rtibia 50.1937
rfoot -14.4583 -13.5382
rtoes -17.8971
lfemur -41.7502 -8.70875 -12.644
ltibia 47.216
lfoot -11.4762 3.34563
ltoes -16.8482
762
root 0.212498 15.1241 -2.66998 9.78581 3.51373 -0.259256
lowerback 34.5788 1.90509 -1.99987
upperback 12.0074 1.65375 -1.47446
thorax -4.3051 0.817025 -1.0404
lowerneck -16.4452 -8.42681 -14.6028
upperneck -0.23247 -9.47561 17.0465
head 4.18785 -4.02362 6.86551
rclavicle -3.97569e-015 2.5842e-015
rhumerus 22.1477 17.8092 -70.8119
rradius 125.75
rwrist 24.4985
rhand -1.38857 6.69639
rfingers 7.12502
rthumb 24.2597 -21.7888
lclavicle -3.97569e-015 2.5842e-015
lhumerus 18.6534 -22.4509 66.7634
lradius 116.621
lwrist -0.842145
lhand -17.0689 21.2652
lfingers 7.12502
lthumb 9.16889 51.0459
rfemur -40.969 7.68326 13.2697
rtibia 50.274
rfoot -14.537 -13.4724
rtoes -17.6351
lfemur -41.5324 -8.68676 -12.9806
ltibia 47.0764
lfoot -11.5043 3.42508
ltoes -17.1858
763
root 0.208968 15.1235 -2.67113 9.76203 3.55966 -0.393403
lowerback 34.4757 1.89241 -2.04077
upperback 12.06 1.63482 -1.41072
thorax -4.21396 0.804263 -0.942862
lowerneck -16.2823 -8.52241 -14.6967
upperneck -0.266113 -9.66002 17.7374
head 4.23851 -4.09442 7.08857
rclavicle -1.31198e-014 2.04748e-014
rhumerus 22.4598 17.6478 -70.5754
rradius 126.035
rwrist 24.3479
rhand -1.23658 6.16386
rfingers 7.12502
rthumb 24.4054 -22.3018
lclavicle -1.31198e-014 2.04748e-014
lhumerus 19.0129 -22.452 66.8018
lradius 116.524
lwrist -0.820934
lhand -17.0952 21.0785
lfingers 7.12502
lthumb 9.14347 50.8603
rfemur -40.9526 7.70553 13.4406
rtibia 50.3148
rfoot -14.5231 -13.5151
rtoes -17.8312
lfemur -41.515 -8.64815 -12.8214
ltibia 47.0265
lfoot -11.476 3.38354
ltoes -17.0665
764
root 0.209316 15.1216 -2.67233 9.80425 3.71131 -0.470354
lowerback 34.5173 1.75081 -1.93156
upperback 11.9397 1.48787 -1.46702
thorax -4.35721 0.738833 -1.01275
lowerneck -15.8031 -8.62174 -14.7573
upperneck -0.411251 -9.89616 18.5834
head 4.22727 -4.20331 7.35864
rclavicle 4.77083e-015 3.97569e-015
rhumerus 22.5246 17.578 -70.6024
rradius 126.254
rwrist 24.1544
rhand -1.52228 5.94722
rfingers 7.12502
rthumb 24.1315 -22.555
lclavicle 4.77083e-015 3.97569e-015
lhumerus 19.1058 -22.5232 66.6923
lradius 116.442
lwrist -0.512265
lhand -17.5962 20.9353
lfingers 7.12502
lthumb 8.66001 50.7377
rfemur -40.9924 7.57703 13.5381
rtibia 50.3318
rfoot -14.5433 -13.5335
rtoes -17.8359
lfemur -41.635 -8.71793 -12.7173
ltibia 47.0681
lfoot -11.4694 3.32748
ltoes -16.9311
